<?xml version="1.0" encoding="UTF-8" standalone="no"?>
<svg
   xmlns:dc="http://purl.org/dc/elements/1.1/"
   xmlns:cc="http://creativecommons.org/ns#"
   xmlns:rdf="http://www.w3.org/1999/02/22-rdf-syntax-ns#"
   xmlns:svg="http://www.w3.org/2000/svg"
   xmlns="http://www.w3.org/2000/svg"
   xmlns:sodipodi="http://sodipodi.sourceforge.net/DTD/sodipodi-0.dtd"
   xmlns:inkscape="http://www.inkscape.org/namespaces/inkscape"
   width="83.961113mm"
   height="85.019447mm"
   viewBox="0 0 83.961113 85.019447"
   version="1.1"
   id="svg8"
   inkscape:version="1.0.2-2 (e86c870879, 2021-01-15)"
   sodipodi:docname="ico.svg">
  <defs
     id="defs2" />
  <sodipodi:namedview
     id="base"
     pagecolor="#ffffff"
     bordercolor="#666666"
     borderopacity="1.0"
     inkscape:pageopacity="0.0"
     inkscape:pageshadow="2"
     inkscape:zoom="0.98994949"
     inkscape:cx="199.9551"
     inkscape:cy="159.95144"
     inkscape:document-units="mm"
     inkscape:current-layer="g869"
     inkscape:document-rotation="0"
     showgrid="false"
     fit-margin-top="0"
     fit-margin-left="0"
     fit-margin-right="0"
     fit-margin-bottom="0"
     inkscape:window-width="1024"
     inkscape:window-height="705"
     inkscape:window-x="-8"
     inkscape:window-y="-8"
     inkscape:window-maximized="1" />
  <metadata
     id="metadata5">
    <rdf:RDF>
      <cc:Work
         rdf:about="">
        <dc:format>image/svg+xml</dc:format>
        <dc:type
           rdf:resource="http://purl.org/dc/dcmitype/StillImage" />
        <dc:title></dc:title>
      </cc:Work>
    </rdf:RDF>
  </metadata>
  <g
     inkscape:label="Layer 1"
     inkscape:groupmode="layer"
     id="layer1"
     transform="translate(-22.880148,-61.282543)">
    <g
       id="g869">
      <path
         style="fill:#580094;stroke-width:0.352778;fill-opacity:1"
         d="M 57.042416,145.76731 C 40.658188,143.37877 25.754726,128.39653 23.265068,111.81141 22.722832,108.19925 22.7867,99.057826 23.381696,95.118474 25.790816,79.168166 40.226127,64.439912 56.04126,61.796132 c 3.892578,-0.650713 13.71176,-0.654424 17.638889,-0.0067 15.723698,2.593534 30.257471,17.425216 32.659561,33.329009 0.27585,1.826358 0.50155,5.752479 0.50155,8.724709 0,8.54119 -0.90738,12.82252 -4.04588,19.08992 -5.111052,10.20643 -13.817484,17.89876 -24.305787,21.47471 -5.189537,1.76936 -14.560899,2.36339 -21.447177,1.3595 z m 12.134359,-6.31653 c 2.178554,-0.77758 5.927256,-3.17264 8.772924,-5.60505 7.25769,-6.20372 12.541402,-16.23686 13.551094,-25.73194 l 0.253217,-2.38125 h -1.164438 c -2.785241,0 -5.49153,-2.41819 -5.870794,-5.24583 -0.363083,-2.706984 1.808123,-5.688129 4.571788,-6.277232 1.190918,-0.253856 1.221871,-0.791524 0.214905,-3.733168 -2.677742,-7.822469 -8.419525,-15.279733 -15.278915,-19.843814 -4.574515,-3.043777 -5.004227,-3.177921 -10.071407,-3.144013 -4.908843,0.03285 -8.771698,0.815689 -13.087783,2.652348 -18.805648,8.002521 -27.338502,30.360999 -18.662552,48.901119 4.040636,8.63466 11.23216,15.32901 20.085062,18.6965 5.235124,1.99135 13.52256,2.84177 16.686899,1.71233 z M 54.45376,117.41095 c -3.700273,-1.71317 -5.356158,-5.8568 -3.751798,-9.38838 1.121614,-2.46893 4.009121,-4.40276 6.57402,-4.40276 2.564899,0 5.452407,1.93383 6.574021,4.40276 2.628276,5.78546 -3.643386,12.05187 -9.396243,9.38838 z m 5.931856,-33.008641 c -1.293516,-0.562588 -2.227689,-2.128741 -2.227689,-3.734746 0,-1.705402 1.963067,-3.51002 3.818209,-3.51002 4.054306,0 5.357841,5.448742 1.716878,7.176492 -1.472195,0.698602 -1.840643,0.706208 -3.307398,0.06827 z"
         id="path873" />
      <path
         style="fill:#000000;stroke-width:0.352778"
         d="m 59.745427,145.9803 c -9.679993,-1.49036 -17.695097,-5.49268 -24.373001,-12.17059 -5.150224,-5.15022 -8.900582,-11.4697 -10.889255,-18.34876 -1.386768,-4.797 -1.70176,-7.59289 -1.513139,-13.43076 0.138272,-4.279557 0.35174,-5.950239 1.114469,-8.722281 4.265632,-15.502887 15.145145,-26.555756 30.369259,-30.853168 3.322655,-0.937908 3.927768,-0.995809 10.406944,-0.995809 6.479177,0 7.08429,0.0579 10.406945,0.995809 13.230991,3.7348 23.843104,13.196019 28.559871,25.462525 2.47442,6.435032 2.83295,8.442464 2.83526,15.875004 0.002,6.53653 -0.0268,6.8034 -1.16494,10.75972 -2.24057,7.78884 -5.761121,13.86999 -11.148857,19.25772 -7.715991,7.71599 -17.609051,12.0291 -28.253556,12.31779 -2.522361,0.0684 -5.379861,0.002 -6.35,-0.1472 z m 13.938772,-6.4841 c 12.91057,-3.35511 22.85666,-13.34071 26.540781,-26.64621 0.63155,-2.28089 0.75284,-3.7087 0.76944,-9.05772 0.022,-7.079717 -0.39885,-9.358228 -2.764239,-14.96679 -2.305505,-5.466572 -7.475524,-11.908542 -12.316372,-15.346505 -6.49556,-4.61314 -15.33518,-7.215529 -23.00452,-6.772543 -20.797752,1.201293 -36.734706,20.019907 -34.414719,40.637458 1.801078,16.00605 13.017418,28.94054 28.075857,32.37661 3.88518,0.88652 3.972708,0.89399 8.995833,0.76756 3.629484,-0.0913 5.560773,-0.32732 8.117939,-0.99186 z"
         id="path871" />
      <path
         id="path875"
         style="fill:#9364c7;fill-opacity:1;fill-rule:evenodd;stroke-width:0;stroke-linejoin:bevel;stroke-dashoffset:1000"
         sodipodi:type="inkscape:offset"
         inkscape:radius="1.1757754"
         inkscape:original="M 157.06641 24.439453 C 147.00216 24.442987 137.59585 24.997615 133.32617 25.839844 C 79.75124 36.40794 37.131913 79.709678 26.046875 134.83398 C 23.535559 147.32241 23.575597 174.80095 26.123047 186.50977 C 33.075445 218.46502 49.223496 245.52641 73.222656 265.44336 C 92.749949 281.64909 113.50948 291.09451 138.47852 295.13281 C 143.9094 296.01116 152.46852 296.46842 160.0957 296.28906 C 171.09582 296.03038 173.43924 295.66239 178.2793 293.43359 C 185.78463 289.97747 200.56155 280.02113 208.58398 273.01367 C 234.79186 250.12157 254.94038 211.83723 258.60156 177.97656 C 258.96199 174.64305 259.47637 171.12071 259.74609 170.14844 C 260.1591 168.65967 259.54082 168.38086 255.82227 168.38086 C 249.68783 168.38086 241.73347 164.21248 237.88867 158.98438 C 230.73617 149.2585 231.5782 139.17157 240.26367 130.53906 C 243.61053 127.21261 246.98005 124.92953 249.74805 124.11133 C 252.79019 123.21211 254.04102 122.29995 254.04102 120.97852 C 254.04102 117.12678 248.56591 102.82249 242.77734 91.550781 C 231.5386 69.666305 214.07175 49.801609 194.13867 36.234375 C 176.9335 24.523873 176.64582 24.432553 157.06641 24.439453 z M 148.69531 59.519531 C 157.52104 60.098676 164.62845 69.14431 162.16602 78.289062 C 161.03667 82.483146 158.35897 85.413241 153.32812 87.955078 C 149.45544 89.911755 146.50482 89.969357 142.36914 88.167969 C 135.84102 85.324493 131.78098 77.433134 133.29688 70.53125 C 134.12498 66.760932 140.6012 60.74327 144.83008 59.814453 C 146.13809 59.527165 147.43449 59.436796 148.69531 59.519531 z M 130.29688 159.88281 C 137.20334 159.88626 142.59864 162.22564 148.9707 167.98242 C 163.68438 181.27534 158.11763 206.79392 139.08984 213.27734 C 125.53636 217.89547 111.15051 211.54242 104.90039 198.17969 C 96.772746 180.80283 110.65226 159.87271 130.29688 159.88281 z "
         d="m 157.06641,23.263672 c -10.10719,0.0035 -19.47355,0.535159 -23.96875,1.421875 -54.057063,10.6632 -97.02672,54.337337 -108.203129,109.916013 -2.57751,12.81761 -2.548068,40.07848 0.08008,52.15821 7.003486,32.19006 23.295582,59.50221 47.498047,79.58789 19.669655,16.32387 40.665464,25.87727 65.818364,29.94531 5.55959,0.89917 14.13722,1.35282 21.83203,1.17187 5.5112,-0.1296 8.88261,-0.28321 11.55664,-0.70312 2.67402,-0.41992 4.62861,-1.12549 7.09179,-2.25977 7.75201,-3.56971 22.44033,-13.48846 30.58594,-20.60351 26.47218,-23.12296 46.71351,-61.57006 50.41406,-95.79492 0.17855,-1.65133 0.39474,-3.35408 0.59961,-4.75586 0.20488,-1.40179 0.41926,-2.56554 0.50782,-2.88477 0.12598,-0.45412 0.23563,-0.92376 0.0937,-1.5 -0.14189,-0.57624 -0.65328,-1.10152 -1.15625,-1.32812 -1.00595,-0.45322 -2.10548,-0.42969 -3.99414,-0.42969 -5.60181,0 -13.42337,-4.07311 -16.98633,-8.91797 -3.44827,-4.68891 -4.9027,-9.34205 -4.52735,-13.83789 0.37536,-4.49585 2.5894,-8.90794 6.78321,-13.07617 3.25779,-3.23793 6.54367,-5.41158 8.99023,-6.13477 1.5827,-0.46783 2.75659,-0.93663 3.64649,-1.58594 0.88989,-0.6493 1.48828,-1.64212 1.48828,-2.67382 0,-1.24149 -0.37741,-2.86563 -0.99414,-4.96875 -0.61674,-2.10313 -1.49051,-4.62804 -2.54493,-7.38282 -2.10882,-5.50955 -4.93571,-11.931634 -7.85351,-17.613278 C 232.49141,68.946018 214.91106,48.949561 194.80078,35.261719 177.59292,23.549386 176.64948,23.256771 157.06641,23.263672 Z m -8.44727,37.429687 c 8.06867,0.529467 14.67623,8.880776 12.41211,17.289063 -1.04377,3.876279 -3.3763,6.470273 -8.23242,8.923828 -3.66642,1.852463 -6.02138,1.899555 -9.96094,0.183594 -5.96158,-2.596705 -9.77383,-10.01781 -8.39258,-16.306641 0.3044,-1.385904 1.99409,-3.818066 4.14258,-5.814453 2.14849,-1.996387 4.77652,-3.628607 6.49414,-4.005859 1.19948,-0.263451 2.38466,-0.345155 3.53711,-0.269532 z M 130.29688,161.05859 c 6.64125,0.003 11.6401,2.1552 17.88476,7.79688 14.0488,12.69224 8.7318,37.10637 -9.4707,43.30859 -13.00145,4.43004 -26.72873,-1.61732 -32.7461,-14.48242 -7.756486,-16.58333 5.52284,-36.63272 24.33204,-36.62305 z"
         transform="matrix(0.26458333,0,0,0.26458333,22.880148,61.282543)" />
    </g>
  </g>
</svg>
