<svg width="318" height="322" viewBox="0 0 318 322" fill="none" xmlns="http://www.w3.org/2000/svg">
<g clip-path="url(#clip0_319_58)">
<path d="M129.117 319.312C67.1926 310.285 10.8645 253.659 1.45478 190.975C-0.594616 177.323 -0.353222 142.773 1.89558 127.884C11.0009 67.5992 65.5596 11.9334 125.333 1.94113C140.045 -0.51826 177.157 -0.532281 192 1.91581C251.428 11.7181 306.359 67.7749 315.438 127.884C316.48 134.786 317.333 149.625 317.333 160.859C317.333 193.141 313.904 209.322 302.042 233.01C282.724 271.585 249.818 300.659 210.177 314.174C190.563 320.861 155.144 323.107 129.117 319.312ZM174.979 295.439C183.213 292.5 197.382 283.448 208.137 274.255C235.568 250.807 255.537 212.887 259.354 177L260.311 168H255.91C245.383 168 235.154 158.86 233.721 148.173C232.349 137.942 240.555 126.675 251 124.448C255.501 123.489 255.618 121.457 251.812 110.339C241.692 80.7734 219.99 52.5885 194.065 35.3384C176.776 23.8344 175.152 23.3274 156 23.4555C137.447 23.5797 122.847 26.5384 106.534 33.4801C35.4579 63.7259 3.20772 148.23 35.9987 218.303C51.2704 250.938 78.451 276.24 111.911 288.967C131.697 296.494 163.02 299.708 174.979 295.439ZM119.333 212.139C105.348 205.664 99.0896 190.003 105.153 176.655C109.392 167.324 120.306 160.015 130 160.015C139.694 160.015 150.607 167.324 154.847 176.655C164.78 198.522 141.076 222.206 119.333 212.139ZM141.753 87.3818C136.864 85.2555 133.333 79.3362 133.333 73.2662C133.333 66.8206 140.753 60 147.764 60C163.088 60 168.014 80.5937 154.253 87.1238C148.689 89.7641 147.297 89.7929 141.753 87.3818Z" fill="#8A0B9D"/>
<path d="M139.333 320.118C102.747 314.485 72.4541 299.358 47.2148 274.118C27.7494 254.653 13.5748 230.768 6.05857 204.769C0.817243 186.638 -0.373281 176.071 0.339617 154.007C0.86222 137.832 1.66903 131.518 4.55179 121.041C20.6739 62.4472 61.7933 20.6726 119.333 4.43038C131.891 0.885535 134.178 0.666687 158.667 0.666687C183.155 0.666687 185.442 0.885531 198 4.43038C248.007 18.5462 288.116 54.3051 305.943 100.667C315.295 124.988 316.65 132.575 316.659 160.667C316.666 185.372 316.557 186.38 312.256 201.333C303.787 230.772 290.481 253.755 270.118 274.118C240.956 303.281 203.564 319.583 163.333 320.674C153.8 320.932 143 320.681 139.333 320.118ZM192.015 295.611C240.811 282.93 278.403 245.189 292.327 194.901C294.714 186.28 295.172 180.883 295.235 160.667C295.318 133.909 293.727 125.297 284.787 104.099C276.074 83.4383 256.533 59.0906 238.237 46.0968C213.687 28.6613 180.278 18.8255 151.291 20.4998C72.6855 25.0401 12.4513 96.1655 21.2198 174.09C28.027 234.585 70.4195 283.472 127.333 296.458C142.017 299.809 142.348 299.837 161.333 299.36C175.051 299.014 182.35 298.122 192.015 295.611Z" fill="black"/>
<path fill-rule="evenodd" clip-rule="evenodd" d="M157.066 23.2637C146.959 23.2672 137.593 23.7988 133.098 24.6855C79.0405 35.3487 36.0709 79.0229 24.8945 134.602C22.317 147.419 22.3464 174.68 24.9746 186.76C31.978 218.95 48.2701 246.262 72.4726 266.348C92.1423 282.672 113.138 292.225 138.291 296.293C143.851 297.192 152.428 297.646 160.123 297.465C165.634 297.335 169.006 297.182 171.68 296.762C174.354 296.342 176.308 295.636 178.771 294.502C186.523 290.932 201.212 281.014 209.357 273.898C235.83 250.775 256.071 212.328 259.771 178.104C259.95 176.452 260.166 174.749 260.371 173.348C260.576 171.946 260.79 170.782 260.879 170.463C261.005 170.009 261.115 169.539 260.973 168.963C260.831 168.387 260.319 167.861 259.816 167.635C258.81 167.182 257.711 167.205 255.822 167.205C250.22 167.205 242.399 163.132 238.836 158.287C235.388 153.598 233.933 148.945 234.309 144.449C234.684 139.953 236.898 135.541 241.092 131.373C244.35 128.135 247.635 125.961 250.082 125.238C251.665 124.77 252.839 124.302 253.728 123.652C254.618 123.003 255.217 122.01 255.217 120.979C255.217 119.737 254.839 118.113 254.223 116.01C253.606 113.907 252.732 111.382 251.678 108.627C249.569 103.117 246.742 96.6953 243.824 91.0137C232.491 68.946 214.911 48.9495 194.801 35.2617C177.593 23.5494 176.649 23.2568 157.066 23.2637ZM148.619 60.6933C156.688 61.2228 163.295 69.5741 161.031 77.9824C159.987 81.8587 157.655 84.4527 152.799 86.9062C149.132 88.7587 146.777 88.8058 142.838 87.0898C136.876 84.4931 133.064 77.072 134.445 70.7832C134.75 69.3973 136.439 66.9651 138.588 64.9687C140.736 62.9724 143.364 61.3401 145.082 60.9629C146.281 60.6994 147.467 60.6177 148.619 60.6933ZM130.297 161.059C136.938 161.062 141.937 163.214 148.182 168.855C162.23 181.548 156.913 205.962 138.711 212.164C125.709 216.594 111.982 210.547 105.965 197.682C98.2083 181.098 111.488 161.049 130.297 161.059Z" fill="#FF72D9"/>
</g>
<defs>
<clipPath id="clip0_319_58">
<rect width="317.333" height="321.333" fill="white"/>
</clipPath>
</defs>
</svg>
