<svg width="37" height="38" viewBox="0 0 37 38" fill="none" xmlns="http://www.w3.org/2000/svg">
<path d="M12.3513 5.56754C8.09783 5.56754 4.64856 9.01681 4.64856 13.2702V25.5946C4.64856 29.848 8.09783 33.2973 12.3513 33.2973H24.6756C28.929 33.2973 32.3783 29.848 32.3783 25.5946V13.2702C32.3783 9.01681 28.929 5.56754 24.6756 5.56754H12.3513ZM27.7567 8.64862C28.607 8.64862 29.2972 9.33878 29.2972 10.1892C29.2972 11.0395 28.607 11.7297 27.7567 11.7297C26.9063 11.7297 26.2161 11.0395 26.2161 10.1892C26.2161 9.33878 26.9063 8.64862 27.7567 8.64862ZM18.5134 11.7297C22.7669 11.7297 26.2161 15.179 26.2161 19.4324C26.2161 23.6858 22.7669 27.1351 18.5134 27.1351C14.26 27.1351 10.8107 23.6858 10.8107 19.4324C10.8107 15.179 14.26 11.7297 18.5134 11.7297ZM18.5134 14.8108C17.2877 14.8108 16.1122 15.2977 15.2454 16.1644C14.3787 17.0311 13.8918 18.2067 13.8918 19.4324C13.8918 20.6581 14.3787 21.8337 15.2454 22.7004C16.1122 23.5671 17.2877 24.054 18.5134 24.054C19.7392 24.054 20.9147 23.5671 21.7814 22.7004C22.6481 21.8337 23.135 20.6581 23.135 19.4324C23.135 18.2067 22.6481 17.0311 21.7814 16.1644C20.9147 15.2977 19.7392 14.8108 18.5134 14.8108Z" fill="white"/>
</svg>
