<svg width="37" height="37" viewBox="0 0 37 37" fill="none" xmlns="http://www.w3.org/2000/svg">
<path d="M18.5134 3.6973C10.3461 3.6973 3.72424 10.3192 3.72424 18.4865C3.72424 26.6538 10.3461 33.2757 18.5134 33.2757C26.6808 33.2757 33.3026 26.6538 33.3026 18.4865C33.3026 10.3192 26.6808 3.6973 18.5134 3.6973ZM12.9626 10.3561C14.0003 10.3561 14.6917 11.0475 14.6917 11.9694C14.6917 12.8912 14.0003 13.5826 12.8479 13.5826C11.8102 13.5839 11.1188 12.8912 11.1188 11.9694C11.1188 11.0475 11.8102 10.3561 12.9626 10.3561ZM14.8161 24.6486H11.1188V14.7892H14.8161V24.6486ZM27.1405 24.6486H23.6601V19.2604C23.6601 17.7704 22.732 17.4266 22.3845 17.4266C22.037 17.4266 20.876 17.6558 20.876 19.2604C20.876 19.4897 20.876 24.6486 20.876 24.6486H17.281V14.7892H20.8772V16.1646C21.3406 15.3623 22.2686 14.7892 24.0088 14.7892C25.749 14.7892 27.1405 16.1646 27.1405 19.2604V24.6486Z" fill="white"/>
</svg>
