<svg width="37" height="38" viewBox="0 0 37 38" fill="none" xmlns="http://www.w3.org/2000/svg">
<path fill-rule="evenodd" clip-rule="evenodd" d="M18.5257 4.67026C10.3409 4.67026 3.72424 11.3357 3.72424 19.5817C3.72424 26.1731 7.96374 31.7527 13.845 33.7275C14.5804 33.8759 14.8497 33.4066 14.8497 33.0118C14.8497 32.6661 14.8255 31.4812 14.8255 30.2466C10.7081 31.1355 9.85065 28.4691 9.85065 28.4691C9.18896 26.7409 8.20854 26.2967 8.20854 26.2967C6.86092 25.3833 8.3067 25.3833 8.3067 25.3833C9.80157 25.4821 10.586 26.9139 10.586 26.9139C11.909 29.185 14.0411 28.5433 14.8988 28.1482C15.0212 27.1854 15.4135 26.5188 15.8301 26.1486C12.5462 25.8029 9.0911 24.5192 9.0911 18.7915C9.0911 17.1621 9.67887 15.829 10.6102 14.7923C10.4633 14.422 9.94851 12.8911 10.7575 10.8421C10.7575 10.8421 12.0072 10.447 14.8252 12.3727C16.0316 12.0463 17.2758 11.8803 18.5257 11.8789C19.7754 11.8789 21.0494 12.0519 22.2259 12.3727C25.0441 10.447 26.2939 10.8421 26.2939 10.8421C27.1028 12.8911 26.5878 14.422 26.4408 14.7923C27.3967 15.829 27.9602 17.1621 27.9602 18.7915C27.9602 24.5192 24.5051 25.7781 21.1967 26.1486C21.736 26.6176 22.2013 27.5062 22.2013 28.9135C22.2013 30.9131 22.1771 32.518 22.1771 33.0115C22.1771 33.4066 22.4467 33.8759 23.1818 33.7278C29.0631 31.7524 33.3026 26.1731 33.3026 19.5817C33.3268 11.3357 26.6859 4.67026 18.5257 4.67026Z" fill="white"/>
</svg>
