<?xml version="1.0" encoding="utf-8"?>
<!-- Svg Vector Icons : http://www.onlinewebfonts.com/icon -->
<!DOCTYPE svg PUBLIC "-//W3C//DTD SVG 1.1//EN" "http://www.w3.org/Graphics/SVG/1.1/DTD/svg11.dtd">
<svg version="1.1" xmlns="http://www.w3.org/2000/svg" xmlns:xlink="http://www.w3.org/1999/xlink" x="0px" y="0px" viewBox="0 0 1000 1000" enable-background="new 0 0 1000 1000" xml:space="preserve">
<metadata> Svg Vector Icons : http://www.onlinewebfonts.com/icon </metadata>
<g><g transform="translate(0.000000,512.000000) scale(0.100000,-0.100000)"><path d="M4529.9,5008.4c-1154.7-118.9-2188.5-608-2999.9-1419.4C751.3,2810.3,287.1,1864.7,124.1,723.5C87.7,462.6,93.4-277.8,135.6-552c84.4-556.2,228.3-1018.5,464.2-1496.1c257-517.9,542.8-914.9,951.4-1317.7c402.8-400.9,774.9-663.6,1290.9-918.7c487.2-237.8,884.2-364.4,1432.8-452.7c308.8-49.9,1043.4-59.5,1329.2-19.2c941.8,136.2,1781.9,492.9,2474.3,1053c987.8,797.9,1611.2,1916.1,1797.2,3218.5c32.6,226.3,32.6,982,0,1208.4C9714.4,1859,9246.4,2812.2,8469.6,3589.1C7710,4348.6,6781.7,4812.8,5690.3,4981.6C5448.6,5018,4775.4,5035.3,4529.9,5008.4z M5306.7,2624.3c0-46,1.9-46,235.9-51.8c209.1-7.7,245.5-13.4,343.3-61.4c128.5-63.3,232.1-172.6,295.4-310.7l46-101.7l-3.8-2106l-5.8-2107.9l-55.6-101.7c-70.9-124.7-159.2-205.2-299.2-268.5c-88.2-42.2-140-51.8-329.9-57.5l-226.3-7.7v-318.4v-320.3l-149.6,149.6l-147.7,147.7l-143.9-143.9c-78.6-78.6-149.6-143.9-157.3-143.9c-9.6,0-15.3,142-15.3,316.5v316.5H3659.1H2623.3L2585-2497c-32.6,42.2-40.3,78.7-40.3,211v161.1h-86.3c-74.8,0-90.2,7.7-109.3,47.9c-15.3,36.4-15.3,59.5,0,95.9c19.2,40.3,34.5,48,109.3,48h86.3v105.5v105.5h-71c-38.4,0-86.3,13.4-105.5,32.6c-80.6,71-11.5,178.4,113.2,178.4c63.3,0,63.3,0,63.3,95.9c0,95.9,0,95.9-63.3,95.9c-78.6,0-147.7,47.9-147.7,99.7c0,67.1,55.6,111.3,138.1,111.3h72.9v105.5v105.5h-86.3c-74.8,0-90.2,7.7-109.3,47.9c-15.3,36.4-15.3,59.5,0,95.9c19.2,40.3,34.5,47.9,109.3,47.9h86.3V-600v105.5h-71c-38.4,0-86.3,13.4-105.5,32.6c-80.6,71-11.5,178.4,113.2,178.4c63.3,0,63.3,0,63.3,95.9c0,95.9,0,95.9-63.3,95.9c-78.6,0-147.7,47.9-147.7,99.7c0,67.1,55.6,111.2,138.1,111.2h72.9v105.5v105.5h-86.3c-74.8,0-90.2,7.7-109.3,47.9c-15.3,36.4-15.3,59.5,0,95.9c19.2,40.3,34.5,48,109.3,48h86.3v105.5v105.5h-71c-38.4,0-86.3,13.4-105.5,32.6c-80.6,71-11.5,178.4,113.2,178.4c63.3,0,63.3,0,63.3,95.9s0,95.9-63.3,95.9c-78.6,0-147.7,48-147.7,99.7c0,67.1,55.6,111.2,138.1,111.2h72.9v105.5v105.5h-86.3c-74.8,0-90.2,7.7-109.3,47.9c-15.3,36.4-15.3,59.5,0,95.9c19.2,40.3,34.5,48,109.3,48h86.3v105.5v105.5h-71c-38.4,0-86.3,13.4-105.5,32.6c-78.6,71-13.4,178.4,111.3,178.4h61.4l7.7,168.8c3.8,107.4,15.3,182.2,32.6,201.4c23,28.8,122.8,32.6,1068.4,32.6h1043.4v47.9v48h306.9h306.9V2624.3z M7439.6,2123.7l224.4-441.2l1.9-1948.8v-1946.8l-51.8-105.5c-40.3-76.7-76.7-117-147.7-161.1c-90.1-55.6-105.5-57.5-306.9-57.5c-191.8,0-220.6,5.7-299.2,47.9c-46,26.8-111.2,86.3-143.9,130.4l-57.5,84.4l-5.8,1977.5l-3.8,1975.6l203.3,414.3c111.3,228.2,216.8,429.6,234,448.8c17.3,21.1,51.8,32.6,78.7,28.8C7209.4,2564.8,7242,2511.1,7439.6,2123.7z"/><path d="M4903.9-112.8v-2595.1l53.7,51.8l53.7,51.8l51.8-51.8l51.8-53.7l-3.8,2589.4l-5.7,2589.4l-99.7,5.7l-101.7,5.8V-112.8z"/><path d="M2755.7,2267.5v-95.9h67.1c69.1,0,143.9-53.7,143.9-101.7c0-61.4-59.5-109.3-136.2-109.3h-74.8v-105.5v-105.5h72.9c76.7,0,138.1-44.1,138.1-99.7c0-47.9-67.1-92.1-140-92.1h-71v-105.5v-105.5h74.8c76.7,0,136.2-47.9,136.2-109.3c0-48-74.8-101.7-143.9-101.7h-67.1V1040c0-88.2,3.8-95.9,46-95.9c128.5,0,193.7-78.6,138.1-163c-24.9-38.4-48-48-107.4-48h-76.7V627.6V522.1h72.9c76.7,0,138.1-44.1,138.1-99.7c0-48-67.1-92.1-140-92.1h-71V224.8V119.3h74.8c76.7,0,136.2-48,136.2-109.3c0-47.9-74.8-101.7-143.9-101.7h-67.1v-95.9v-95.9h67.1c69.1,0,143.9-53.7,143.9-101.7c0-61.4-59.5-109.3-136.2-109.3h-74.8V-600v-105.5h72.9c76.7,0,138.1-44.1,138.1-99.7c0-47.9-67.1-92.1-140-92.1h-71v-105.5v-105.5h74.8c76.7,0,136.2-47.9,136.2-109.3c0-47.9-74.8-101.7-143.9-101.7h-67.1v-95.9v-95.9h67.1c69.1,0,143.9-53.7,143.9-101.7c0-61.4-59.5-109.3-136.2-109.3h-74.8v-105.5V-1933h72.9c76.7,0,138.1-44.1,138.1-99.7c0-47.9-67.1-92.1-140-92.1h-71v-105.5v-105.5h968.6h968.6v1429v1429l-761.5,3.8l-763.4,5.8l-5.8,609.9l-3.8,608h767.2h767.2v306.9v306.9h-968.6h-968.6V2267.5z"/><path d="M5310.5,2062.3l5.8-303l149.6-5.8l147.7-5.8v-611.9V522.1h-153.4h-153.4v-1429v-1429h189.9c274.3,0,400.9,55.6,487.2,216.7l42.2,80.6l5.8,1994.8c3.8,1386.8,0,2023.6-15.3,2092.6c-24.9,118.9-113.2,230.2-218.7,278.1c-61.4,26.9-126.6,36.4-285.8,36.4h-207.2L5310.5,2062.3z"/><path d="M3369.5,1145.4V733.1h661.7h661.7v412.4v412.4h-661.7h-661.7V1145.4z"/><path d="M5320.1,1546.3c-7.7-7.7-13.4-193.7-13.4-414.3v-399h57.5h57.5l-3.8,408.5c-5.8,393.2-7.7,406.6-44.1,412.4C5350.8,1557.8,5327.8,1554,5320.1,1546.3z"/><path d="M7033,1999c-63.3-126.6-115.1-234-115.1-239.8c0-5.8,107.4-9.6,239.8-9.6s239.8,3.8,239.8,9.6c0,19.2-230.2,469.9-239.8,469.9C7151.9,2229.2,7096.2,2125.6,7033,1999z"/><path d="M6854.6,1544.4c-7.7-5.8-13.4-744.2-13.4-1639.9v-1626.5h105.5h105.5V-82.1v1639.9h-92.1C6908.3,1557.8,6860.3,1552.1,6854.6,1544.4z"/><path d="M7263.1-82.1v-1639.9h95.9h95.9V-82.1v1639.9H7359h-95.9V-82.1z"/><path d="M6841.2-2042.4c0-130.4,44.1-234,115.1-268.5c69-34.5,333.8-32.6,402.8,3.8c78.6,40.3,95.9,82.5,95.9,237.8v136.2H7148h-306.9V-2042.4z"/></g></g>
</svg>