<svg width="103" height="110" viewBox="0 0 103 110" fill="none" xmlns="http://www.w3.org/2000/svg">
<path d="M16.48 8.24C16.48 12.7908 12.7908 16.48 8.24 16.48C3.68917 16.48 0 12.7908 0 8.24C0 3.68917 3.68917 0 8.24 0C12.7908 0 16.48 3.68917 16.48 8.24Z" fill="white"/>
<path d="M59.74 8.23999C59.74 10.5154 57.8954 12.36 55.62 12.36C53.3446 12.36 51.5 10.5154 51.5 8.23999C51.5 5.96458 53.3446 4.12 55.62 4.12C57.8954 4.12 59.74 5.96458 59.74 8.23999Z" fill="white"/>
<path d="M103 8.23999C103 10.5154 101.155 12.36 98.88 12.36C96.6046 12.36 94.76 10.5154 94.76 8.23999C94.76 5.96458 96.6046 4.12 98.88 4.12C101.155 4.12 103 5.96458 103 8.23999Z" fill="white"/>
<path d="M59.74 51.5C59.74 53.7754 57.8954 55.62 55.62 55.62C53.3446 55.62 51.5 53.7754 51.5 51.5C51.5 49.2246 53.3446 47.38 55.62 47.38C57.8954 47.38 59.74 49.2246 59.74 51.5Z" fill="white"/>
<path d="M59.74 94.76C59.74 97.0354 57.8954 98.88 55.62 98.88C53.3446 98.88 51.5 97.0354 51.5 94.76C51.5 92.4846 53.3446 90.64 55.62 90.64C57.8954 90.64 59.74 92.4846 59.74 94.76Z" fill="white"/>
<path d="M69.54 94.76C69.54 102.448 63.3078 108.68 55.62 108.68C47.9322 108.68 41.7 102.448 41.7 94.76C41.7 87.0722 47.9322 80.84 55.62 80.84C63.3078 80.84 69.54 87.0722 69.54 94.76Z" stroke="white"/>
<path d="M12.36 94.76C12.36 97.0354 10.5154 98.88 8.23999 98.88C5.96458 98.88 4.12 97.0354 4.12 94.76C4.12 92.4846 5.96458 90.64 8.23999 90.64C10.5154 90.64 12.36 92.4846 12.36 94.76Z" fill="white"/>
</svg>
