<?xml version="1.0" encoding="utf-8"?>
<!-- Svg Vector Icons : http://www.onlinewebfonts.com/icon -->
<!DOCTYPE svg PUBLIC "-//W3C//DTD SVG 1.1//EN" "http://www.w3.org/Graphics/SVG/1.1/DTD/svg11.dtd">
<svg version="1.1" xmlns="http://www.w3.org/2000/svg" xmlns:xlink="http://www.w3.org/1999/xlink" x="0px" y="0px" viewBox="0 0 1000 1000" enable-background="new 0 0 1000 1000" xml:space="preserve">
<metadata> Svg Vector Icons : http://www.onlinewebfonts.com/icon </metadata>
<g><g><g><path d="M653.5,256.5c0,0,2.9-12.2,25.6-25.6c0,0-24-3.7-36.2,16.3C651.1,253.6,653.5,256.5,653.5,256.5z"/><path d="M500,10C229.4,10,10,229.4,10,500c0,270.6,219.4,490,490,490c270.6,0,490-219.4,490-490C990,229.4,770.6,10,500,10z M696.4,228.1c15.8,12.7,15.2,39.6-1.3,60.1L498.9,501.7c-16.5,20.4-12.7,19.5-28.5,6.8c-15.8-12.7-15.9-8.8,0.6-29.3L638,242.1C654.5,221.6,680.7,215.4,696.4,228.1z M463.1,563.1c-54.6,22.6-132.8,4.9-100.3,4.7c32.5-0.2,36.6-8.1,47.2-40.8C429.6,475.5,517.6,540.6,463.1,563.1z M586.2,778c-7.7,1-80.8,0.1-86.2,0c-5.4,0.1-78.4,1-86.2,0c-8-1.1,0-7.5,10.2-15c10.2-7.5,11.2-20.9,11.2-20.9l3.8-26.5h121.8l3.8,26.5c0,0,1.1,12.3,11.3,19.8C586.2,769.5,594.2,776.9,586.2,778z M794,672.8c0,13-10.5,23.2-23.5,23.2h-541c-13,0-23.5-10.2-23.5-23.2v-341c0-13,10.5-27.8,23.5-27.8h337.6l-24.8,39.2H245.2v284.2h509.6V343.2h-90.2l32.4-39.2h73.4c13,0,23.5,14.8,23.5,27.8L794,672.8L794,672.8z"/></g></g><g></g><g></g><g></g><g></g><g></g><g></g><g></g><g></g><g></g><g></g><g></g><g></g><g></g><g></g><g></g></g>
</svg>